<?xml version="1.0" encoding="utf-8"?>
<!-- Generator: Adobe Illustrator 15.0.0, SVG Export Plug-In . SVG Version: 6.00 Build 0)  -->
<!DOCTYPE svg PUBLIC "-//W3C//DTD SVG 1.1//EN" "http://www.w3.org/Graphics/SVG/1.1/DTD/svg11.dtd">
<svg version="1.1" id="Layer_1" xmlns="http://www.w3.org/2000/svg" xmlns:xlink="http://www.w3.org/1999/xlink" x="0px" y="0px"
	 width="400px" height="400px" viewBox="0 0 400 400" enable-background="new 0 0 400 400" xml:space="preserve">
<path fill="#F9D499" d="M180.238,222c1.84,4.961,12.641,4.961,17.043,4.801c5.438-0.16,11.84-0.16,16.398-3.359
	c0.082-0.402,0.242-0.641,0.48-0.723c-0.082-1.438-0.238-2.879-0.559-4.398c-0.082,0.078-0.242,0.16-0.32,0.238
	c-4.562,2.801-10.883,1.922-16,2.48c-2.402,0.242-5.761,0.48-8.082-0.32c-2.238-0.719-3.359-2.719-4.879-4.398L184,216
	c-0.559-0.238-0.961-0.48-1.199-0.801c-0.242-0.32-0.723-0.398-1.52-0.801c-0.48,2.48-0.883,4.961-1.043,7.363
	C180.238,221.762,180.32,221.922,180.238,222z"/>
<path fill="#12BC00" d="M310.879,356.16c-13.84,0.078-27.68,0.238-41.52,0.32c0.402-1.199,1.121-2.402,1.199-3.602
	c0.32-7.438,0.48-14.879,0.723-22.398c4.879-0.961,9.758-2,15.598-3.121c-5.117-10.078-9.918-19.52-14.641-28.961
	c-0.078-4.078-0.316-8.238-0.078-12.32c0.238-4.316-0.801-7.52-5.199-9.117c-3.68,1.117-6-0.242-7.52-3.68
	c-1.441-3.203-3.281-6.32-4.883-9.441l-0.797,0.16l-1.043,12.879c-4.879,0.242-9.758,0.801-14.641,0.801
	c-27.758,0.082-55.598,0.082-83.359,0c-4.239,0-8.481-0.398-12.719-0.641c-0.16-4.398-0.398-8.719-0.559-13.117
	c-2.562,3.117-4.402,6.238-5.921,9.598c-1.52,3.281-3.68,4.641-7.122,3.441c-4.718,1.199-5.597,4.641-5.519,8.801
	c0.082,4-0.078,8-0.078,11.918c-4.641,9.68-9.36,19.359-14.242,29.602c5.761,1.117,10.562,2.078,15.281,3.039
	c0.082,5.441,0,10.879,0.238,16.32c0.16,3.281,0.723,6.48,1.121,9.758H81.762c-0.883,0-1.84-0.238-2.723-0.32
	c-5.598-3.68-7.117-9.039-6.16-15.277c0.402-2.723,1.199-5.52,2.402-8c6.879-14.48,13.918-28.879,20.879-43.359
	c4-8.32,7.918-16.723,11.918-25.043c0.961-1.199,2-2.398,2.723-3.68c4.961-8.957,9.597-18.078,15.039-26.719
	c1.601-2.559,5.199-5.441,8.082-6.32c15.199-4.641,30.879-6.879,46.797-6.801c-3.598,7.441,37.84,7.281,33.043,0.082
	c16.078-0.242,31.758,2.238,47.199,6.559c3.598,1.039,6.719,2.961,8.641,6.559c5.359,10.082,10.879,20.16,16.398,30.082
	c0.48,0.879,1.762,1.281,2.641,1.918c0.398,1.684,0.559,3.441,1.281,4.883c8.238,16.801,16.477,33.598,24.797,50.719
	c1.043,1.441,6.641,9.68,4.32,20.48C317.441,349.922,312.641,354.559,310.879,356.16z"/>
<path fill="#D3D1CD" d="M126.559,356.48c-0.399-3.281-0.957-6.48-1.118-9.762c-0.242-5.438-0.16-10.879-0.242-16.32
	c-0.32-10.879-0.719-21.758-1.039-32.637c0-4,0.16-8,0.078-11.922c-0.078-4.16,0.883-7.68,5.524-8.801
	c4.558,0.082,9.117,0.082,13.679,0.16c4.239,0.242,8.481,0.641,12.719,0.641c27.762,0.082,55.602,0.082,83.359,0
	c4.879,0,17.441-0.16,18.801-0.238c3.359-0.082,6.719-0.32,10.078-0.48c4.32,1.52,5.441,4.801,5.203,9.117
	c-0.242,4.082,0,8.242,0.078,12.32c-0.32,10.723-0.641,21.363-0.961,32.082c-0.238,7.438-0.398,14.879-0.719,22.398
	c-0.078,1.199-0.801,2.402-1.199,3.602C222.719,356.48,174.641,356.48,126.559,356.48z"/>
<path fill="#B3B3B3" d="M126.559,362.48c-0.399-0.242-0.957-0.48-1.118-0.719c-0.242-0.402-0.16-0.801-0.242-1.203
	c-0.32-0.797-0.719-1.598-1.039-2.48c0-0.316,0.16-0.559,0.078-0.879c-0.078-0.32,0.883-0.559,5.524-0.641h13.679
	c4.239,0,8.481,0.082,12.719,0.082h112.238c4.32,0.078,5.441,0.398,5.203,0.719c-0.242,0.32,0,0.641,0.078,0.961l-0.961,2.398
	c-0.238,0.562-0.398,1.121-0.719,1.68c-0.078,0.082-0.801,0.16-1.199,0.242C222.719,362.48,174.641,362.48,126.559,362.48z"/>
<path fill="#F9D499" d="M190.16,179.84C190.078,179.84,190.078,179.84,190.16,179.84C190.078,179.84,190.078,179.84,190.16,179.84z
	 M205.441,193.52c-0.32,0-0.562-0.079-0.801,0c-1.922,0.48-3.922,0.878-5.762,1.441c-0.879,0.238-1.68,0.801-2.399,1.277
	c-0.402,0.242-0.558,0.801-0.32,1.282c0.238,0.48,0.801,0.718,1.36,0.558c0.32-0.078,0.64-0.316,0.96-0.476
	c0.641-0.403,1.2-0.961,1.84-1.364C202,195.441,203.68,194.48,205.441,193.52z M190.32,179.922L190.238,180
	c0.242,0.16,0.403,0.32,0.641,0.48c4.883,3.598,10.32,5.68,16.402,6.239c0.797,0.082,1.68,0,2.559-0.078
	c0.559-0.082,0.719-0.481,0.238-0.879c-0.156-0.16-0.398-0.321-0.637-0.403c-0.48-0.16-1.043-0.238-1.52-0.238
	c-1.684-0.16-3.281-0.242-4.961-0.562c-4.242-0.797-8.242-2.399-12.082-4.321C190.641,180.078,190.48,180,190.32,179.922z
	 M209.68,169.441c-1.121,0.399-2.238,0.879-3.359,1.278c-1.441,0.48-2.879,0.48-4.32-0.16c-1.121-0.559-2.398-0.879-3.602-1.278
	c-0.636-0.242-1.277-0.242-1.839,0.16c-0.637,0.399-0.719,0.637,0,0.957c1.363,0.641,2.64,1.282,4,1.762
	C204.32,173.359,207.762,171.922,209.68,169.441c0.082,0,0.082,0,0.082-0.082C209.762,169.359,209.68,169.359,209.68,169.441z
	 M247.441,147.922c0.957-0.082,1.84-0.16,2.957-0.242c0.16,0.8,0.48,1.679,0.641,2.64c0.723,3.2-0.078,6.16-1.039,9.2
	c-1.199,3.921-3.039,7.519-5.281,10.878c-0.078,0.082-0.16,0.161-0.238,0.321c-1.039,1.281-1.52,1.359-2.719,0.32
	c-0.562-0.48-1.203-0.559-1.922-0.48c-0.398,0.082-0.801,0.242-1.199,0.402c-1.121,0.559-0.879,1.598-0.719,2.48
	c0.719,3.278,1.359,6.637,2.156,9.84c0.32,1.36,0.16,2.481-0.637,3.52c-1.602,2-3.203,4-4.883,5.918
	c-3.918,4.402-7.84,8.801-11.84,13.203c-3.52,3.84-7.199,7.598-10.719,11.359c-0.961,1.039-2.238,1.438-3.602,1.52
	c-2.078,0-4.16-0.082-6.238-0.16c-1.84,0-3.68-0.082-5.441-0.082c-1.758,0-3.598,0-5.36,0.082c-1.918,0.078-3.437-0.641-4.718-1.922
	c-2.719-2.641-5.36-5.199-8-7.918c-6.879-6.961-13.84-13.762-21.121-20.242c-0.321-0.239-0.559-0.559-0.879-0.797
	c-0.879-0.563-1.121-1.364-1.039-2.321c0.078-2.242,0.16-4.402,0.32-6.64c0.156-1.922,0.476-3.762,0.558-5.68
	c0.079-1.043,0-2.082-0.16-3.043c0-0.238-0.398-0.476-0.558-0.558c-1.282-0.161-2.481-0.079-3.442,1.039
	c-0.16,0.16-0.64,0.16-0.879,0.16c-0.961-0.16-1.679-0.797-2.242-1.52c-1.519-1.918-2.48-4.078-3.277-6.32
	c-1.524-4.32-3.043-8.641-4.481-13.039c-0.48-1.36,0.079-2.399,1.36-2.961c0.16-0.078,0.32-0.078,0.48-0.078l1.438-0.242
	c0.242,0,0.64,0.082,0.801,0.242c0.48,0.64,1.039,0.879,1.839,0.879h1.442c0.16,1.199,0.238,2.398,0.48,3.519
	c0.641,4.242,1.758,8.403,3.758,12.16c1.922,3.68,5.039,6,8.883,7.36c2.719,0.961,5.519,1.519,8.476,1.761
	c3.524,0.239,7.043,0.079,10.403-0.96c5.84-1.758,9.519-5.758,11.121-11.598c0.558-2.16,0.957-4.402,1.519-6.641
	c0.321-1.121,0.797-2.242,1.36-3.203c1.437-2.398,5.277-2.719,6.961,0c0.957,1.524,1.438,3.281,1.918,5.043
	c0.641,2.32,1.039,4.719,1.922,6.957c2.16,5.524,6.32,8.723,12.078,9.922c3.121,0.641,6.242,0.801,9.441,0.48
	c4.32-0.402,8.48-1.519,12.16-3.921c2.398-1.598,3.918-3.918,5.117-6.399c1.523-3.121,2.402-6.48,2.961-9.922
	C247.039,150.961,247.199,149.441,247.441,147.922z"/>
<path fill="#F9D499" d="M189.359,134.32c-0.32-1.359-0.558-2.718-0.879-4.082c-0.16-0.636-0.48-1.039-1.039-1.359
	c-1.121-0.641-2.32-0.957-3.519-0.801c-1.762,0.16-3.442,0.402-5.203,0.641c-2.879,0.32-5.758,0.722-8.641,1.043
	c-2.797,0.316-5.598,0.476-8.398,0.797c-1.121,0.16-2.321,0.48-3.442,0.722c-0.16,0.078-0.398,0.399-0.398,0.641
	c0.082,0.316,0.238,0.637,0.719,0.558c1.601-0.16,3.203-0.402,4.8-0.48c2.481-0.078,4.961-0.16,7.442-0.16
	c1.519,0,3.121,0.082,4.64,0.238c2,0.242,3.918,0.481,5.918,0.801C184,133.441,186.641,133.922,189.359,134.32z M234.961,131.199
	c-0.723-0.238-1.52-0.48-2.242-0.719c-5.84-1.761-11.598-4-17.598-5.121c-1.121-0.238-2.242-0.32-3.359-0.398
	c-1.121-0.082-2.082,0.641-2.242,1.68c-0.238,1.039-0.238,2.078-0.32,3.121c0,0.476,0.242,0.718,0.801,0.797
	c1.68,0.16,3.359,0.48,5.039,0.64c1.52,0.16,3.121,0.481,4.723,0.481c4.797,0.082,9.52,0,14.316,0
	C234.398,131.762,234.719,131.68,234.961,131.199z M240.398,134.32c-1.598-0.32-3.117-0.718-4.637-0.961
	c-1.684-0.238-3.363-0.48-5.043-0.558c-2.16-0.16-4.32-0.16-6.48-0.082c-2.637,0.082-5.277,0.32-7.84,0.562
	c-4.879,0.559-9.68,1.68-14.238,3.36c-1.121,0.398-2.238,0.879-3.359,1.199c-0.961,0.32-1.922,0.082-2.879-0.32
	c-4.32-1.918-8.883-3.122-13.602-3.918c-2.718-0.403-5.441-0.723-8.16-0.883c-2.719-0.16-5.441-0.239-8.16-0.078
	c-3.602,0.16-7.121,0.718-10.559,1.679c-0.402,0.16-0.562,0.078-0.8-0.32c-1.039-2.16-1.282-4.48-1.602-6.801
	c-0.559-4.238-0.801-8.398-0.719-12.64c0-0.957,0.078-2,0.16-2.957c0-0.563,0.321-0.961,0.801-1.282c1.84-1.281,3.918-2.082,6-2.8
	c1.84-0.641,3.68-1.282,5.68-1.04c1.519,0.161,3.039,0.399,4.559,0.641c2.96,0.559,5.921,1.117,8.878,1.598
	c2.481,0.48,4.883,0.883,7.364,1.281c1.84,0.32,3.597,0.559,5.437,0.801c1.762,0.238,3.602,0.48,5.36,0.558
	c2.082,0.161,4.16,0.161,6.242,0.082c1.758,0,3.598-0.16,5.359-0.32c2-0.242,4-0.48,5.918-0.801
	c3.762-0.718,7.441-1.519,11.203-2.48c2.238-0.559,4.48-1.36,6.719-2c1.602-0.399,3.199-0.641,4.801-0.16
	c1.121,0.32,1.918,1.039,2.32,2.16c0.957,2.879,1.68,5.762,2.078,8.719c0.402,3.363,0.562,6.64,0.242,10
	c-0.16,2.082-0.48,4.242-0.723,6.32C240.641,133.281,240.48,133.84,240.398,134.32z"/>
<path fill="#FEFEFE" d="M221.68,152.801l-0.078-0.082c0.238-0.879,0.477-1.758,0.797-2.559c0.242-0.879,0.562-1.68,0.801-2.558
	c-2.801-0.883-5.758,0.476-6.961,3.199c-1.199,2.801,0,5.918,2.641,7.277c2.641,1.363,5.922,0.481,7.52-2.078
	c1.523-2.32,0.883-5.52-0.797-6.879C224.32,150.32,222.961,151.602,221.68,152.801z M223.121,170.32
	c-2.961-0.16-5.922-0.558-8.641-1.84c-4.48-2.082-7.039-5.679-8-10.402c-0.48-2.558-0.879-5.117-1.199-7.68
	c-0.242-2.238-0.32-4.476,0.16-6.636c0.32-1.524,1.117-2.641,2.48-3.442c2.156-1.281,4.477-2,6.879-2.558
	c4.398-0.961,8.879-1.282,13.359-1.043c3.039,0.16,6,0.32,8.961,1.203c1.68,0.476,3.199,1.199,4.398,2.398
	c1.84,1.758,2.641,4,2.641,6.481c0,1.84-0.16,3.758-0.32,5.597c-0.238,2.641-0.801,5.282-1.918,7.68
	c-2.402,5.363-6.641,8.481-12.402,9.524C227.441,169.922,225.281,170.078,223.121,170.32z"/>
<path fill="#FEFEFE" d="M174.719,147.602c-2.559-0.961-5.68,0.398-6.879,2.957c-1.281,2.722-0.238,5.921,2.32,7.363
	c2.559,1.437,5.918,0.719,7.602-1.762c1.519-2.238,1.277-5.601-0.641-7.121c-1.281,1.199-2.562,2.481-3.922,3.68
	c-0.078,0-0.078-0.078-0.16-0.078C173.68,150.961,174.238,149.281,174.719,147.602z M190.719,147.441
	c-0.078,2.879-0.481,5.68-0.957,8.481c-0.321,1.758-0.641,3.598-1.364,5.277c-1.918,4.481-5.437,7.121-10.078,8.321
	c-3.039,0.718-6.16,0.8-9.199,0.402c-2.402-0.32-4.801-0.641-7.043-1.684c-4.476-1.918-7.199-5.437-8.797-9.918
	c-0.801-2.32-1.203-4.718-1.359-7.199c-0.082-1.601-0.242-3.121-0.242-4.723c0.082-4.078,2.242-6.718,6-8.238
	c1.84-0.719,3.761-1.121,5.761-1.199c2.719-0.16,5.438-0.402,8.161-0.32c4.718,0.078,9.437,0.64,13.918,2.398
	c0.718,0.32,1.441,0.641,2.16,1.039c1.84,0.961,2.64,2.481,2.961,4.481C190.641,145.52,190.641,146.48,190.719,147.441z"/>
<path fill="#2E3032" d="M190.32,179.922l0.481,0.238c3.84,1.918,7.84,3.52,12.078,4.32c1.602,0.321,3.281,0.399,4.961,0.559
	c0.48,0.082,1.039,0.16,1.52,0.242c0.242,0.078,0.48,0.239,0.641,0.399c0.398,0.398,0.32,0.8-0.238,0.879
	c-0.883,0.082-1.684,0.16-2.562,0.082c-6.078-0.563-11.519-2.641-16.398-6.243c-0.242-0.16-0.403-0.32-0.641-0.476H190.32z"/>
<path fill="#2D2F32" d="M209.68,169.52c-1.918,2.402-5.359,3.839-9.039,2.64c-1.359-0.398-2.719-1.121-4-1.762
	c-0.719-0.32-0.641-0.636,0-0.957c0.64-0.402,1.199-0.402,1.839-0.16c1.2,0.399,2.399,0.797,3.598,1.278
	c1.441,0.64,2.883,0.64,4.32,0.16C207.441,170.32,208.559,169.84,209.68,169.52C209.68,169.441,209.68,169.441,209.68,169.52z"/>
<path fill="#2E3032" d="M205.441,193.52c-1.762,0.96-3.52,1.839-5.203,2.8c-0.636,0.399-1.199,0.879-1.84,1.36
	c-0.32,0.242-0.636,0.398-0.957,0.48c-0.562,0.16-1.121-0.16-1.363-0.558c-0.238-0.563-0.156-1.043,0.32-1.282
	c0.801-0.48,1.602-1.039,2.403-1.281c1.918-0.559,3.84-1.039,5.758-1.437C204.879,193.52,205.121,193.52,205.441,193.52z"/>
<path fill="#2B2E31" d="M243.281,150.879c-0.242,2.48-0.723,15.84-13.84,18.32c-14.883,2.879-21.762-3.597-23.121-11.84
	c-0.641-3.679-2.559-13.121,0.398-16.078c3.043-2.961,13.281-5.601,26.16-4.082C245.359,138.719,243.602,147.199,243.281,150.879z
	 M189.68,157.359c-1.36,8.243-8.239,14.719-23.121,11.84c-13.118-2.48-13.598-15.918-13.84-18.32
	c-0.321-3.68-2.078-12.16,10.402-13.598c12.801-1.519,23.117,1.117,26.16,4.078C192.238,144.238,190.238,153.68,189.68,157.359z
	 M251.441,140c-0.082-0.48-0.48-0.961-0.961-1.121c-4.641-2.078-11.922-6.719-27.441-6.078c-11.84,0.48-19.68,3.359-23.117,4.879
	c-1.281,0.558-2.641,0.558-3.922,0c-3.441-1.52-11.281-4.399-23.121-4.879c-15.52-0.641-22.719,4-27.438,6.078
	c-0.48,0.242-0.882,0.641-0.961,1.121c-0.32,1.359-0.558,4.32,1.84,7.359c0.321,0.403,0.801,0.641,1.282,0.641h1.679
	c0,0,0.879,15.359,8.481,20.559c7.597,5.203,19.918,4.961,25.679,2.082c4-2.082,6.797-5.282,8.239-10.161
	c1.441-4.878,1.199-11.921,6.398-11.921c4.562,0,4.961,7.043,6.402,11.921c1.441,4.879,4.238,8.079,8.238,10.161
	c5.68,2.879,18.082,3.121,25.68-2.082c7.602-5.2,8.402-20.559,8.402-20.559h1.68c0.48,0,0.961-0.238,1.281-0.641
	C252,144.32,251.762,141.359,251.441,140z"/>
<path fill="#2B2E31" d="M158.879,132.719c0,0,10-1.36,19.68,0c9.679,1.359,10.961,1.922,10.961,1.922s-0.559-4.481-1.282-5.121
	c-0.797-0.641-2.636-1.52-4.636-1.2c-2.082,0.321-12.641,1.758-16.723,1.918c-4.16,0.242-6.957,0.801-7.918,1.203
	C157.922,131.84,158.879,132.719,158.879,132.719z"/>
<path fill="#2B2E31" d="M209.359,130.719c0,0,9.359,1.281,10.402,1.281c1.117,0,12-0.238,14.238,0l0.559-0.641
	c0,0-5.84-1.757-9.68-3.121c-3.84-1.359-10.801-2.957-12.641-3.117c-1.84-0.082-2.719,0.801-2.957,1.758
	C209.039,127.84,208.641,130.078,209.359,130.719z"/>
<path fill="#2B2E31" d="M155.199,133.68l-5.519,1.84c0,0-4.078-17.918-5.282-23.52c-1.199-5.52,0-11.602,1.524-13.84
	c1.519-2.16,17.277-20.64,26-29.281c8.719-8.641,14.476-13.039,15.359-13.117c0.879-0.082,2.399,3.359,2.399,3.359
	s1.199-3.84,0.8-6.16c-0.402-2.402-0.558-4.32-0.558-4.32s6.719,0.64,10.637,7.359c0,0,0.402-3.68-0.878-6.559
	c0,0,5.121,0.879,8.48,7.918c0,0,1.121-2.961,0-4.48c0,0,3.441-0.078,8.238,6.082c0,0,1.602-1.281,3.043,0.32
	c1.438,1.598,15.359,18.16,23.68,34c0,0,4.879,8.16,5.68,9.598c0.801,1.441-2.32,26-3.121,32.48c0,0-3.602-1.519-5.52-2.078
	c0,0,2.961-12.801-1.52-25.203c0,0-0.562-4.156-8.719-1.437c-8.16,2.718-20.48,5.519-31.762,5.039
	c-11.281-0.559-29.68-5.121-33.121-5.039c-3.437,0.078-10.961,3.281-11.437,4.64C153.039,112.879,153.039,126.879,155.199,133.68z"
	/>
<path fill="#FEFEFE" d="M177.602,149.039l-4.082,3.922l1.679-5.359c-0.558-0.161-1.039-0.243-1.679-0.243
	c-3.122,0-5.68,2.563-5.68,5.68c0,3.121,2.558,5.68,5.68,5.68c3.121,0,5.679-2.559,5.679-5.68
	C179.199,151.359,178.641,150,177.602,149.039z"/>
<path fill="#FEFEFE" d="M225.281,149.039l-4.082,3.922l1.68-5.359c-0.559-0.161-1.039-0.243-1.68-0.243
	c-3.121,0-5.68,2.563-5.68,5.68c0,3.121,2.559,5.68,5.68,5.68s5.68-2.559,5.68-5.68C226.801,151.359,226.238,150,225.281,149.039z"
	/>
</svg>
