<?xml version="1.0" ?><!DOCTYPE svg  PUBLIC '-//W3C//DTD SVG 1.1//EN'  'http://www.w3.org/Graphics/SVG/1.1/DTD/svg11.dtd'><svg enable-background="new 0 0 512 512" id="Layer_1" version="1.1" viewBox="0 0 512 512" xml:space="preserve" xmlns="http://www.w3.org/2000/svg" xmlns:xlink="http://www.w3.org/1999/xlink"><g><path d="M512,256c0,141.4-114.6,256-256,256C114.6,512,0,397.4,0,256S114.6,0,256,0C397.4,0,512,114.6,512,256z" fill="#21759B"/><path d="M255.1,93.1C165.6,93.1,93,165.7,93,255.2c0,89.5,72.6,162.1,162.1,162.1c89.5,0,162.1-72.6,162.1-162.1   C417.2,165.7,344.6,93.1,255.1,93.1z M148.9,149c28.4-28.4,66.1-44,106.2-44c37.7,0,73.3,13.8,100.9,39c-3.3-0.1-6.9,0.5-10.6,1.7   c-9.1,3-28.6,22-3.9,55.9c24.7,33.9,12.2,65.5,10.1,72.5c-2.7,8.8-21.5,71.5-21.5,71.5l-54.2-161.2c0,0,15.3-1.1,17.5-1.5   c2.2-0.3,5.8-2.5,5.2-7.1c-0.6-4.6-4-5.2-7.2-5.1c-1.6,0.1-20.5,1.5-39.3,1.5c-18.7,0-37.2-1.4-38.5-1.5c-2.6-0.1-6.5,0.2-7.4,4.3   c-0.7,3.5,1,7.3,4.8,7.8c3.7,0.4,1.2,0.1,16.4,1.5c0,0,10.3,28.2,23.3,63.9l-33,98l-54.4-162c0,0,15.3-1.1,17.5-1.5   c2.2-0.3,5.8-2.5,5.2-7.1c-0.6-4.6-4-5.2-7.2-5.1c-1.6,0.1-20.5,1.5-39.3,1.5c-3.3,0-6.5,0-9.6-0.1   C135.4,163.9,141.8,156.2,148.9,149z M104.9,255.2c0-21.7,4.6-42.6,13.2-61.7c13.5,37,64,175.2,72,197.2   c-15.1-7.3-29-17.1-41.2-29.3C120.6,333,104.9,295.3,104.9,255.2z M212.8,399.4c3.4-10.3,31.8-92.5,45.2-131.2   c20.3,55.5,44.3,123,46.5,128.9c-15.7,5.4-32.3,8.3-49.3,8.3C240.6,405.4,226.4,403.3,212.8,399.4z M361.3,361.4   c-9.4,9.4-19.8,17.3-30.9,23.8c8.1-23.7,30.3-86,49.6-142.5c7.3-21.9,9.3-42.6,7.1-59.4c11.9,21.8,18.2,46.3,18.2,71.9   C405.3,295.3,389.6,333,361.3,361.4z" fill="#FFFFFF"/></g></svg>